# xmcd
#
# Track frame offsets:
#	150
#	26564
#	95995
#	169534
#	233485
#	266548
#
# Disc length: 4633 seconds
#
# Revision: 1
# Processed by: cddbd v1.5.2PL0 Copyright (c) Steve Scherf et al.
# Submitted via: audiograbber 1.82.01
#
DISCID=43121706
DTITLE=Polacek Karel - Muzi v ofsajdu 3
DYEAR=1900
DGENRE=Folk
TTITLE0=Zenichove se nesmeji zabijet
TTITLE1=Nazory pana Naceradce o manzelstvi
TTITLE2=Kava, babovka a mezistatni match Madarsko - Ceskoslovensko
TTITLE3=Melancholie vrchniho cisnika
TTITLE4=Pan Kauders zahajil rozhodne kroky
TTITLE5=Svatebni obrad
EXTD=
EXTT0=
EXTT1=
EXTT2=
EXTT3=
EXTT4=
EXTT5=
PLAYORDER=
